<mxfile host="app.diagrams.net" agent="Mozilla/5.0 (Windows NT 10.0; Win64; x64) AppleWebKit/537.36 (KHTML, like Gecko) Chrome/130.0.0.0 Safari/537.36" version="24.8.2">
  <diagram name="Pagina-1" id="Dy8L7Fie1EkWv0OMfunp">
    <mxGraphModel grid="1" page="1" gridSize="10" guides="1" tooltips="1" connect="1" arrows="1" fold="1" pageScale="1" pageWidth="827" pageHeight="1169" math="0" shadow="0">
      <root>
        <mxCell id="0" />
        <mxCell id="1" parent="0" />
        <mxCell id="MG-06ltVUumPlErHIds7-2" value="main" style="rounded=0;whiteSpace=wrap;html=1;align=left;labelPosition=center;verticalLabelPosition=middle;verticalAlign=top;spacingLeft=6;" vertex="1" parent="1">
          <mxGeometry x="140" y="170" width="640" height="110" as="geometry" />
        </mxCell>
        <mxCell id="Af65MH9nl0yfhu7qpbzy-1" value="extract.js" style="rounded=0;whiteSpace=wrap;html=1;" vertex="1" parent="1">
          <mxGeometry x="160" y="200" width="120" height="60" as="geometry" />
        </mxCell>
        <mxCell id="Af65MH9nl0yfhu7qpbzy-2" value="train.js" style="rounded=0;whiteSpace=wrap;html=1;" vertex="1" parent="1">
          <mxGeometry x="400" y="200" width="120" height="60" as="geometry" />
        </mxCell>
        <mxCell id="Af65MH9nl0yfhu7qpbzy-3" value="test.js" style="rounded=0;whiteSpace=wrap;html=1;" vertex="1" parent="1">
          <mxGeometry x="640" y="200" width="120" height="60" as="geometry" />
        </mxCell>
        <mxCell id="Af65MH9nl0yfhu7qpbzy-4" value="Config.js" style="rounded=0;whiteSpace=wrap;html=1;" vertex="1" parent="1">
          <mxGeometry x="160" y="400" width="600" height="60" as="geometry" />
        </mxCell>
        <mxCell id="Af65MH9nl0yfhu7qpbzy-5" value="" style="endArrow=classic;html=1;rounded=0;entryX=0;entryY=0.5;entryDx=0;entryDy=0;exitX=1;exitY=0.5;exitDx=0;exitDy=0;" edge="1" parent="1" source="Af65MH9nl0yfhu7qpbzy-1" target="Af65MH9nl0yfhu7qpbzy-2">
          <mxGeometry width="50" height="50" relative="1" as="geometry">
            <mxPoint x="390" y="360" as="sourcePoint" />
            <mxPoint x="440" y="310" as="targetPoint" />
          </mxGeometry>
        </mxCell>
        <mxCell id="Af65MH9nl0yfhu7qpbzy-6" value="" style="endArrow=classic;html=1;rounded=0;entryX=0;entryY=0.5;entryDx=0;entryDy=0;exitX=1;exitY=0.5;exitDx=0;exitDy=0;" edge="1" parent="1" source="Af65MH9nl0yfhu7qpbzy-2" target="Af65MH9nl0yfhu7qpbzy-3">
          <mxGeometry width="50" height="50" relative="1" as="geometry">
            <mxPoint x="-60" y="420" as="sourcePoint" />
            <mxPoint x="-10" y="370" as="targetPoint" />
          </mxGeometry>
        </mxCell>
        <mxCell id="Af65MH9nl0yfhu7qpbzy-7" value="c" style="endArrow=classic;html=1;rounded=0;entryX=0.5;entryY=1;entryDx=0;entryDy=0;exitX=0.25;exitY=0;exitDx=0;exitDy=0;" edge="1" parent="1" source="Af65MH9nl0yfhu7qpbzy-4" target="Af65MH9nl0yfhu7qpbzy-1">
          <mxGeometry width="50" height="50" relative="1" as="geometry">
            <mxPoint x="390" y="360" as="sourcePoint" />
            <mxPoint x="440" y="310" as="targetPoint" />
          </mxGeometry>
        </mxCell>
        <mxCell id="Af65MH9nl0yfhu7qpbzy-23" value="configures" style="edgeLabel;html=1;align=center;verticalAlign=middle;resizable=0;points=[];" connectable="0" vertex="1" parent="Af65MH9nl0yfhu7qpbzy-7">
          <mxGeometry x="-0.0778" y="-1" relative="1" as="geometry">
            <mxPoint x="-9" y="-5" as="offset" />
          </mxGeometry>
        </mxCell>
        <mxCell id="Af65MH9nl0yfhu7qpbzy-8" value="configures" style="endArrow=classic;html=1;rounded=0;entryX=0.5;entryY=1;entryDx=0;entryDy=0;exitX=0.5;exitY=0;exitDx=0;exitDy=0;" edge="1" parent="1" source="Af65MH9nl0yfhu7qpbzy-4" target="Af65MH9nl0yfhu7qpbzy-2">
          <mxGeometry width="50" height="50" relative="1" as="geometry">
            <mxPoint x="390" y="360" as="sourcePoint" />
            <mxPoint x="440" y="310" as="targetPoint" />
          </mxGeometry>
        </mxCell>
        <mxCell id="Af65MH9nl0yfhu7qpbzy-9" value="configures" style="endArrow=classic;html=1;rounded=0;entryX=0.25;entryY=1;entryDx=0;entryDy=0;exitX=0.75;exitY=0;exitDx=0;exitDy=0;" edge="1" parent="1" source="Af65MH9nl0yfhu7qpbzy-4" target="Af65MH9nl0yfhu7qpbzy-3">
          <mxGeometry width="50" height="50" relative="1" as="geometry">
            <mxPoint x="390" y="360" as="sourcePoint" />
            <mxPoint x="440" y="310" as="targetPoint" />
          </mxGeometry>
        </mxCell>
        <mxCell id="Af65MH9nl0yfhu7qpbzy-10" value="trainResults.json" style="shape=document;whiteSpace=wrap;html=1;boundedLbl=1;" vertex="1" parent="1">
          <mxGeometry x="400" y="30" width="120" height="80" as="geometry" />
        </mxCell>
        <mxCell id="Af65MH9nl0yfhu7qpbzy-11" value="extractResults.json" style="shape=document;whiteSpace=wrap;html=1;boundedLbl=1;" vertex="1" parent="1">
          <mxGeometry x="160" y="30" width="120" height="80" as="geometry" />
        </mxCell>
        <mxCell id="Af65MH9nl0yfhu7qpbzy-12" value="testResults.json" style="shape=document;whiteSpace=wrap;html=1;boundedLbl=1;" vertex="1" parent="1">
          <mxGeometry x="640" y="30" width="120" height="80" as="geometry" />
        </mxCell>
        <mxCell id="Af65MH9nl0yfhu7qpbzy-13" value="writes" style="endArrow=classic;html=1;rounded=0;exitX=0.5;exitY=0;exitDx=0;exitDy=0;" edge="1" parent="1" source="Af65MH9nl0yfhu7qpbzy-1">
          <mxGeometry width="50" height="50" relative="1" as="geometry">
            <mxPoint x="220" y="193" as="sourcePoint" />
            <mxPoint x="220" y="103" as="targetPoint" />
          </mxGeometry>
        </mxCell>
        <mxCell id="Af65MH9nl0yfhu7qpbzy-14" value="writes" style="endArrow=classic;html=1;rounded=0;exitX=0.5;exitY=0;exitDx=0;exitDy=0;exitPerimeter=0;" edge="1" parent="1" source="Af65MH9nl0yfhu7qpbzy-2">
          <mxGeometry width="50" height="50" relative="1" as="geometry">
            <mxPoint x="460" y="193" as="sourcePoint" />
            <mxPoint x="460" y="103" as="targetPoint" />
          </mxGeometry>
        </mxCell>
        <mxCell id="Af65MH9nl0yfhu7qpbzy-15" value="writes" style="endArrow=classic;html=1;rounded=0;exitX=0.5;exitY=0;exitDx=0;exitDy=0;" edge="1" parent="1" source="Af65MH9nl0yfhu7qpbzy-3">
          <mxGeometry width="50" height="50" relative="1" as="geometry">
            <mxPoint x="700" y="193" as="sourcePoint" />
            <mxPoint x="700" y="103" as="targetPoint" />
          </mxGeometry>
        </mxCell>
        <mxCell id="Af65MH9nl0yfhu7qpbzy-16" value="patterns" style="rounded=0;whiteSpace=wrap;html=1;" vertex="1" parent="1">
          <mxGeometry x="310" y="190" width="60" height="30" as="geometry" />
        </mxCell>
        <mxCell id="Af65MH9nl0yfhu7qpbzy-18" value="model" style="rounded=0;whiteSpace=wrap;html=1;" vertex="1" parent="1">
          <mxGeometry x="550" y="190" width="60" height="30" as="geometry" />
        </mxCell>
        <mxCell id="Af65MH9nl0yfhu7qpbzy-19" value="train data" style="rounded=0;whiteSpace=wrap;html=1;" vertex="1" parent="1">
          <mxGeometry x="60" y="190" width="60" height="30" as="geometry" />
        </mxCell>
        <mxCell id="Af65MH9nl0yfhu7qpbzy-20" value="" style="endArrow=classic;html=1;rounded=0;entryX=0;entryY=0.5;entryDx=0;entryDy=0;" edge="1" parent="1" target="Af65MH9nl0yfhu7qpbzy-1">
          <mxGeometry width="50" height="50" relative="1" as="geometry">
            <mxPoint x="40" y="230" as="sourcePoint" />
            <mxPoint x="440" y="310" as="targetPoint" />
          </mxGeometry>
        </mxCell>
        <mxCell id="Af65MH9nl0yfhu7qpbzy-21" value="test data" style="rounded=0;whiteSpace=wrap;html=1;" vertex="1" parent="1">
          <mxGeometry x="670" y="320" width="60" height="30" as="geometry" />
        </mxCell>
        <mxCell id="Af65MH9nl0yfhu7qpbzy-22" value="" style="endArrow=classic;html=1;rounded=0;exitX=0.5;exitY=0;exitDx=0;exitDy=0;" edge="1" parent="1" target="Af65MH9nl0yfhu7qpbzy-3" source="Af65MH9nl0yfhu7qpbzy-21">
          <mxGeometry width="50" height="50" relative="1" as="geometry">
            <mxPoint x="590" y="300" as="sourcePoint" />
            <mxPoint x="440" y="310" as="targetPoint" />
          </mxGeometry>
        </mxCell>
      </root>
    </mxGraphModel>
  </diagram>
</mxfile>
